<svg width="331.38359375px" height="122px" xmlns="http://www.w3.org/2000/svg" viewBox="84.308203125 14 331.38359375 122" style="background: rgba(0, 0, 0, 0);" preserveAspectRatio="xMidYMid"><defs><filter id="editing-extrusion" x="-100%" y="-100%" width="300%" height="300%"><feFlood result="color1" flood-color="#444"></feFlood><feConvolveMatrix order="8,8" divisor="1" kernelMatrix="1 0 0 0 0 0 0 0 0 1 0 0 0 0 0 0 0 0 1 0 0 0 0 0 0 0 0 1 0 0 0 0 0 0 0 0 1 0 0 0 0 0 0 0 0 1 0 0 0 0 0 0 0 0 1 0 0 0 0 0 0 0 0 1" in="SourceAlpha" result="extrude"></feConvolveMatrix><feComposite in="color1" in2="extrude" result="comp-extrude" operator="in"></feComposite><feOffset dx="4" dy="4" in="comp-extrude" result="offset-extrude"></feOffset><feMerge><feMergeNode in="offset-extrude"></feMergeNode><feMergeNode in="SourceGraphic"></feMergeNode></feMerge></filter></defs><g filter="url(#editing-extrusion)"><g transform="translate(135.29225552082062, 104.47000122070312)"><path d="M48.83-10.69L48.83-10.69Q44.61-4.86 40.54-1.79L40.54-1.79L40.54-1.79Q36.48 1.28 32.29 1.28L32.29 1.28L32.29 1.28Q28.10 1.28 26.62 0.45L26.62 0.45L26.62-13.63L26.62-13.63Q22.98-3.90 16.45-0.13L16.45-0.13L16.45-0.13Q14.08 1.28 11.84 1.28L11.84 1.28L11.84 1.28Q7.55 1.28 5.70 0.45L5.70 0.45L5.70 0.45Q5.25-14.21 4.86-18.27L4.86-18.27L4.86-18.27Q4.48-22.34 4.16-24.83L4.16-24.83L4.16-24.83Q3.52-29.82 1.34-31.87L1.34-31.87L1.34-31.87Q4.10-33.92 7.94-33.92L7.94-33.92L7.94-33.92Q15.36-33.92 16.38-24.70L16.38-24.70L16.38-24.70Q16.64-22.53 16.64-20.22L16.64-20.22L16.64-20.22Q16.64-16.77 15.87-4.74L15.87-4.74L15.87-4.74Q17.41-5.44 19.04-7.97L19.04-7.97L19.04-7.97Q20.67-10.50 22.02-13.95L22.02-13.95L22.02-13.95Q25.02-21.95 25.02-28.86L25.02-28.86L25.02-28.86Q25.02-29.95 24.74-31.10L24.74-31.10L24.74-31.10Q24.45-32.26 24.13-32.58L24.13-32.58L24.13-32.58Q26.37-33.92 29.79-33.92L29.79-33.92L29.79-33.92Q33.22-33.92 34.85-31.58L34.85-31.58L34.85-31.58Q36.48-29.25 36.93-24.96L36.93-24.96L36.93-24.96Q37.44-19.52 37.44-16.26L37.44-16.26L37.44-16.26Q37.44-11.71 36.99-4.99L36.99-4.99L36.99-4.99Q40.19-7.30 42.82-14.85L42.82-14.85L42.82-14.85Q45.44-22.40 45.44-27.78L45.44-27.78L45.44-27.78Q45.44-30.14 45.06-31.55L45.06-31.55L45.06-31.55Q47.17-33.92 50.82-33.92L50.82-33.92L50.82-33.92Q53.06-33.92 54.69-32.70L54.69-32.70L54.69-32.70Q56.32-31.49 56.32-29.22L56.32-29.22L56.32-29.22Q56.32-26.94 55.65-24.51L55.65-24.51L55.65-24.51Q54.98-22.08 53.89-19.58L53.89-19.58L53.89-19.58Q51.78-14.59 48.83-10.69L48.83-10.69ZM78.40-7.23L78.40-7.23L78.40-7.23Q75.07-3.78 68.99-3.78L68.99-3.78L68.99-3.78Q61.38-3.78 59.78-9.34L59.78-9.34L59.78-9.34Q59.26-11.01 59.26-12.86L59.26-12.86L59.26-12.86Q59.26-14.72 59.65-16.64L59.65-16.64L62.66-32.64L75.65-33.92L72.13-15.30L72.13-15.30Q72-14.46 71.81-13.57L71.81-13.57L71.81-13.57Q71.62-12.67 71.62-11.74L71.62-11.74L71.62-11.74Q71.62-10.82 71.94-10.21L71.94-10.21L71.94-10.21Q72.26-9.60 72.70-9.22L72.70-9.22L72.70-9.22Q73.47-8.70 74.85-8.70L74.85-8.70L74.85-8.70Q76.22-8.70 77.41-10.37L77.41-10.37L77.41-10.37Q78.59-12.03 79.17-14.91L79.17-14.91L82.69-32.64L95.30-33.92L90.50-8.77L90.50-8.77Q88.13 3.52 83.26 8.38L83.26 8.38L83.26 8.38Q80.77 10.88 77.54 11.87L77.54 11.87L77.54 11.87Q74.30 12.86 70.14 12.86L70.14 12.86L70.14 12.86Q63.42 12.86 59.58 10.75L59.58 10.75L59.58 10.75Q55.74 8.64 55.74 5.12L55.74 5.12L55.74 5.12Q55.74 2.50 57.73 0.99L57.73 0.99L57.73 0.99Q59.71-0.51 62.78-0.51L62.78-0.51L62.78-0.51Q65.47-0.51 67.52 0.64L67.52 0.64L67.52 0.64Q68.74 1.34 69.31 2.24L69.31 2.24L69.31 2.24Q67.84 3.52 67.84 5.63L67.84 5.63L67.84 5.63Q67.84 8.45 70.40 8.45L70.40 8.45L70.40 8.45Q74.62 8.45 77.06-1.28L77.06-1.28L77.06-1.28Q77.76-4.16 78.40-7.23ZM111.55 1.28L111.55 1.28L111.55 1.28Q97.47 1.28 97.47-11.97L97.47-11.97L97.47-11.97Q97.47-21.38 102.66-27.46L102.66-27.46L102.66-27.46Q108.16-33.92 117.70-33.92L117.70-33.92L117.70-33.92Q124.61-33.92 128.13-30.72L128.13-30.72L128.13-30.72Q131.65-27.52 131.65-20.80L131.65-20.80L131.65-20.80Q131.65-10.56 126.14-4.61L126.14-4.61L126.14-4.61Q120.77 1.28 111.55 1.28ZM113.22-26.56L113.22-26.56L113.22-26.56Q112.45-24.83 111.84-22.24L111.84-22.24L111.84-22.24Q111.23-19.65 110.46-15.55L110.46-15.55L110.46-15.55Q109.70-11.46 109.70-6.40L109.70-6.40L109.70-6.40Q109.70-4.74 110.24-3.65L110.24-3.65L110.24-3.65Q110.78-2.56 112.26-2.56L112.26-2.56L112.26-2.56Q113.73-2.56 114.66-3.26L114.66-3.26L114.66-3.26Q115.58-3.97 116.29-5.63L116.29-5.63L116.29-5.63Q117.57-8.58 118.59-14.05L118.59-14.05L118.59-14.05Q119.62-19.52 119.71-21.89L119.71-21.89L119.71-21.89Q119.81-24.26 119.81-26.02L119.81-26.02L119.81-26.02Q119.81-27.78 119.30-28.93L119.30-28.93L119.30-28.93Q118.78-30.08 117.34-30.08L117.34-30.08L117.34-30.08Q115.90-30.08 114.94-29.18L114.94-29.18L114.94-29.18Q113.98-28.29 113.22-26.56ZM155.46-17.98L155.46-17.98L155.46-17.98Q157.76-22.08 157.76-26.24L157.76-26.24L157.76-26.24Q157.76-28.99 155.78-28.99L155.78-28.99L155.78-28.99Q154.24-28.99 152.64-26.37L152.64-26.37L152.64-26.37Q150.98-23.74 150.46-20.35L150.46-20.35L147.14 0L133.89 1.28L140.42-32.64L150.98-33.92L149.82-27.46L149.82-27.46Q152.96-33.92 160-33.92L160-33.92L160-33.92Q163.71-33.92 165.73-32L165.73-32L165.73-32Q167.74-30.08 167.74-26.14L167.74-26.14L167.74-26.14Q167.74-22.21 165.15-19.71L165.15-19.71L165.15-19.71Q162.56-17.22 158.14-17.22L158.14-17.22L158.14-17.22Q156.22-17.22 155.46-17.98ZM184.06-3.52L184.06-3.52L184.06-3.52Q182.08 1.28 175.74 1.28L175.74 1.28L175.74 1.28Q172.54 1.28 170.50-0.96L170.50-0.96L170.50-0.96Q168.83-2.82 168.83-4.93L168.83-4.93L168.83-4.93Q168.83-9.73 171.07-20.22L171.07-20.22L175.74-44.80L188.74-46.08L182.53-13.70L182.53-13.70Q181.44-8.96 181.44-7.30L181.44-7.30L181.44-7.30Q181.44-3.65 184.06-3.52ZM209.66-33.92L209.66-33.92L209.66-33.92Q211.97-33.92 213.76-33.41L213.76-33.41L213.76-33.41Q213.82-33.66 213.95-34.37L213.95-34.37L214.27-36.35L214.27-36.35Q214.53-37.63 214.91-39.74L214.91-39.74L215.94-44.80L228.67-46.08L221.57-8.96L221.57-8.96Q221.50-8.58 221.50-7.94L221.50-7.94L221.50-6.91L221.50-6.91Q221.50-5.50 222.21-4.45L222.21-4.45L222.21-4.45Q222.91-3.39 224.06-3.39L224.06-3.39L224.06-3.39Q222.78-0.38 218.88 0.90L218.88 0.90L218.88 0.90Q217.54 1.28 215.65 1.28L215.65 1.28L215.65 1.28Q213.76 1.28 212.03 0.29L212.03 0.29L212.03 0.29Q210.30-0.70 209.79-2.37L209.79-2.37L209.79-2.37Q208.77-0.70 206.72 0.29L206.72 0.29L206.72 0.29Q204.67 1.28 201.70 1.28L201.70 1.28L201.70 1.28Q198.72 1.28 196.26 0.51L196.26 0.51L196.26 0.51Q193.79-0.26 192.26-1.92L192.26-1.92L192.26-1.92Q189.44-5.18 189.44-12.61L189.44-12.61L189.44-12.61Q189.44-22.21 195.07-28.03L195.07-28.03L195.07-28.03Q200.70-33.92 209.66-33.92ZM209.22-30.08L209.22-30.08L209.22-30.08Q206.85-30.08 205.57-27.52L205.57-27.52L205.57-27.52Q204.29-24.96 202.98-18.62L202.98-18.62L202.98-18.62Q201.66-12.29 201.66-6.59L201.66-6.59L201.66-6.59Q201.66-2.69 203.97-2.69L203.97-2.69L203.97-2.69Q206.02-2.69 207.46-4.74L207.46-4.74L207.46-4.74Q208.90-6.78 209.47-10.18L209.47-10.18L212.93-28.93L212.93-28.93Q211.58-30.08 209.22-30.08Z" fill="#ccc"></path></g></g><style>text {
  font-size: 64px;
  font-family: Arial Black;
  dominant-baseline: central;
  text-anchor: middle;
}</style></svg>